# xmcd
#
# Track frame offsets:
#	150
#	23820
#	45945
#	63112
#	89525
#	117550
#	133950
#	154477
#	180267
#	203207
#
# Disc length: 2950 seconds
#
# Revision: 1
# Processed by: cddbd v1.5PL3 Copyright (c) Steve Scherf et al.
# Submitted via: CDex 1.50Beta5
#
DISCID=850b840a
DTITLE=Small Circle of Friends - 太陽
DYEAR=2002
DGENRE=New Age
TTITLE0=夏休み世界一周
TTITLE1=Dance
TTITLE2=chatch!
TTITLE3=LOBBY
TTITLE4=ホノルル
TTITLE5=太陽
TTITLE6=さよならサマーディ
TTITLE7=夏のせい
TTITLE8=カメラデイズ
TTITLE9=風が吹いた
EXTD=
EXTT0=
EXTT1=
EXTT2=
EXTT3=
EXTT4=
EXTT5=
EXTT6=
EXTT7=
EXTT8=
EXTT9=
PLAYORDER=
